<svg xmlns="http://www.w3.org/2000/svg" xmlns:xlink="http://www.w3.org/1999/xlink" width="1280" zoomAndPan="magnify" viewBox="0 0 960 179.999997" height="240" preserveAspectRatio="xMidYMid meet" version="1.0"><defs><g/><clipPath id="02b01682d2"><path d="M 67.417969 155.578125 L 98.890625 155.578125 L 98.890625 179.988281 L 67.417969 179.988281 Z M 67.417969 155.578125 " clip-rule="nonzero"/></clipPath><clipPath id="fdf2cddcd4"><path d="M 20.691406 0.0117188 L 189.75 0.0117188 L 189.75 173.453125 L 20.691406 173.453125 Z M 20.691406 0.0117188 " clip-rule="nonzero"/></clipPath></defs><path fill="#ffffff" d="M 144.328125 10.671875 C 146.378906 10.671875 148.046875 12.339844 148.046875 14.390625 C 148.046875 16.4375 146.378906 18.105469 144.328125 18.105469 C 142.277344 18.105469 140.609375 16.4375 140.609375 14.390625 C 140.609375 12.339844 142.277344 10.671875 144.328125 10.671875 Z M 141.980469 21.960938 L 142.222656 22.035156 L 142.222656 29.847656 C 142.222656 31.011719 143.167969 31.953125 144.328125 31.953125 C 145.488281 31.953125 146.433594 31.011719 146.433594 29.847656 L 146.433594 22.035156 L 146.675781 21.960938 C 150.011719 20.925781 152.257812 17.882812 152.257812 14.390625 C 152.257812 10.019531 148.699219 6.460938 144.328125 6.460938 C 139.957031 6.460938 136.402344 10.019531 136.402344 14.390625 C 136.402344 17.882812 138.644531 20.921875 141.980469 21.960938 " fill-opacity="1" fill-rule="nonzero"/><path fill="#ffffff" d="M 37.628906 21.617188 C 39.679688 21.617188 41.347656 23.285156 41.347656 25.335938 C 41.347656 27.382812 39.679688 29.050781 37.628906 29.050781 C 35.582031 29.050781 33.914062 27.382812 33.914062 25.335938 C 33.914062 23.285156 35.582031 21.617188 37.628906 21.617188 Z M 35.28125 32.90625 L 35.527344 32.980469 L 35.527344 43.972656 C 35.527344 49.4375 39.96875 53.878906 45.433594 53.878906 C 45.984375 53.878906 46.507812 53.667969 46.902344 53.28125 L 46.941406 53.242188 C 46.957031 53.226562 46.972656 53.207031 46.988281 53.191406 L 47 53.179688 C 47.320312 52.824219 47.511719 52.363281 47.535156 51.878906 C 47.535156 51.84375 47.539062 51.808594 47.539062 51.773438 C 47.539062 51.742188 47.535156 51.707031 47.535156 51.671875 C 47.511719 51.1875 47.320312 50.722656 46.996094 50.363281 L 46.988281 50.355469 C 46.972656 50.339844 46.957031 50.324219 46.941406 50.308594 L 46.882812 50.25 C 46.871094 50.238281 46.859375 50.226562 46.847656 50.214844 L 46.835938 50.207031 C 46.5 49.90625 46.089844 49.722656 45.644531 49.679688 C 45.574219 49.671875 45.503906 49.667969 45.433594 49.667969 L 45.425781 49.667969 C 42.289062 49.664062 39.734375 47.109375 39.734375 43.972656 L 39.734375 32.980469 L 39.976562 32.90625 C 43.316406 31.871094 45.558594 28.828125 45.558594 25.335938 C 45.558594 20.964844 42 17.40625 37.628906 17.40625 C 33.257812 17.40625 29.703125 20.964844 29.703125 25.335938 C 29.703125 28.828125 31.945312 31.871094 35.28125 32.90625 " fill-opacity="1" fill-rule="nonzero"/><path fill="#ffffff" d="M 25.925781 114.976562 C 23.878906 114.976562 22.210938 113.308594 22.210938 111.257812 C 22.210938 109.210938 23.878906 107.542969 25.925781 107.542969 C 27.976562 107.542969 29.644531 109.210938 29.644531 111.257812 C 29.644531 113.308594 27.976562 114.976562 25.925781 114.976562 Z M 28.273438 103.6875 L 28.03125 103.609375 L 28.03125 99.027344 C 28.03125 95.886719 30.589844 93.332031 33.730469 93.332031 C 34.285156 93.332031 34.804688 93.117188 35.199219 92.730469 L 35.207031 92.722656 L 35.226562 92.707031 C 35.589844 92.335938 35.808594 91.847656 35.832031 91.332031 C 35.832031 91.296875 35.835938 91.261719 35.835938 91.226562 C 35.835938 91.191406 35.832031 91.15625 35.832031 91.121094 C 35.808594 90.640625 35.617188 90.175781 35.292969 89.816406 L 35.285156 89.808594 C 35.269531 89.792969 35.253906 89.773438 35.234375 89.753906 L 35.1875 89.707031 C 35.171875 89.695312 35.160156 89.679688 35.144531 89.667969 L 35.132812 89.660156 C 34.796875 89.359375 34.386719 89.175781 33.9375 89.132812 C 33.867188 89.125 33.796875 89.121094 33.730469 89.121094 L 33.707031 89.121094 C 28.253906 89.136719 23.824219 93.578125 23.824219 99.027344 L 23.824219 103.609375 L 23.578125 103.6875 C 20.242188 104.722656 18 107.765625 18 111.257812 C 18 115.628906 21.554688 119.1875 25.925781 119.1875 C 30.296875 119.1875 33.855469 115.628906 33.855469 111.257812 C 33.855469 107.765625 31.613281 104.722656 28.273438 103.6875 " fill-opacity="1" fill-rule="nonzero"/><path fill="#ffffff" d="M 178.945312 124.667969 C 176.894531 124.667969 175.226562 123 175.226562 120.949219 C 175.226562 118.902344 176.894531 117.234375 178.945312 117.234375 C 180.996094 117.234375 182.664062 118.902344 182.664062 120.949219 C 182.664062 123 180.996094 124.667969 178.945312 124.667969 Z M 178.945312 113.023438 C 175.453125 113.023438 172.410156 115.265625 171.371094 118.601562 L 171.296875 118.84375 L 165.679688 118.84375 C 164.519531 118.84375 163.574219 119.789062 163.574219 120.949219 C 163.574219 122.109375 164.519531 123.054688 165.679688 123.054688 L 171.296875 123.054688 L 171.371094 123.296875 C 172.410156 126.632812 175.453125 128.875 178.945312 128.875 C 183.316406 128.875 186.871094 125.320312 186.871094 120.949219 C 186.871094 116.578125 183.316406 113.023438 178.945312 113.023438 " fill-opacity="1" fill-rule="nonzero"/><g clip-path="url(#02b01682d2)"><path fill="#ffffff" d="M 75.410156 175.777344 C 73.363281 175.777344 71.695312 174.109375 71.695312 172.058594 C 71.695312 170.007812 73.363281 168.34375 75.410156 168.34375 C 77.460938 168.34375 79.128906 170.007812 79.128906 172.058594 C 79.128906 174.109375 77.460938 175.777344 75.410156 175.777344 Z M 96.765625 155.605469 C 95.605469 155.605469 94.660156 156.550781 94.660156 157.710938 L 94.660156 164.257812 C 94.660156 167.398438 92.105469 169.953125 88.964844 169.953125 L 83.058594 169.953125 L 82.984375 169.710938 C 81.945312 166.375 78.902344 164.132812 75.410156 164.132812 C 71.039062 164.132812 67.484375 167.6875 67.484375 172.058594 C 67.484375 176.429688 71.039062 179.988281 75.410156 179.988281 C 78.902344 179.988281 81.945312 177.746094 82.984375 174.40625 L 83.058594 174.164062 L 88.964844 174.164062 C 94.425781 174.164062 98.871094 169.722656 98.871094 164.257812 L 98.871094 157.710938 C 98.871094 156.550781 97.925781 155.605469 96.765625 155.605469 " fill-opacity="1" fill-rule="nonzero"/></g><g clip-path="url(#fdf2cddcd4)"><path fill="#ffffff" d="M 181.894531 58.933594 C 179.847656 58.933594 178.179688 57.265625 178.179688 55.21875 C 178.179688 53.167969 179.847656 51.5 181.894531 51.5 C 183.945312 51.5 185.613281 53.167969 185.613281 55.21875 C 185.613281 57.265625 183.945312 58.933594 181.894531 58.933594 Z M 156.785156 109.363281 C 153.976562 116.066406 149.957031 122.097656 144.828125 127.292969 C 139.703125 132.484375 133.730469 136.585938 127.070312 139.484375 C 120.183594 142.480469 112.855469 144.054688 105.289062 144.160156 L 105.242188 144.164062 C 104.976562 144.167969 104.71875 144.167969 104.472656 144.167969 C 104.253906 144.167969 104.03125 144.167969 103.8125 144.164062 C 103.660156 144.160156 103.503906 144.160156 103.351562 144.15625 L 103.207031 144.152344 C 95.691406 143.988281 88.414062 142.375 81.585938 139.355469 C 74.976562 136.4375 69.046875 132.328125 63.96875 127.144531 C 58.886719 121.957031 54.898438 115.941406 52.117188 109.265625 C 49.238281 102.355469 47.777344 95.023438 47.777344 87.472656 C 47.777344 79.820312 49.277344 72.394531 52.234375 65.40625 C 55.089844 58.65625 59.175781 52.589844 64.382812 47.382812 C 69.589844 42.175781 75.652344 38.089844 82.402344 35.234375 C 89.394531 32.277344 96.816406 30.777344 104.472656 30.777344 C 112.125 30.777344 119.550781 32.277344 126.539062 35.234375 C 133.289062 38.089844 139.355469 42.175781 144.5625 47.382812 C 149.769531 52.589844 153.855469 58.65625 156.710938 65.40625 C 159.667969 72.394531 161.167969 79.820312 161.167969 87.472656 C 161.167969 95.058594 159.691406 102.425781 156.785156 109.363281 Z M 144.433594 161.796875 C 146.484375 161.796875 148.152344 163.464844 148.152344 165.515625 C 148.152344 167.5625 146.484375 169.230469 144.433594 169.230469 C 142.382812 169.230469 140.714844 167.5625 140.714844 165.515625 C 140.714844 163.464844 142.382812 161.796875 144.433594 161.796875 Z M 44.167969 147.523438 C 44.167969 149.574219 42.5 151.242188 40.449219 151.242188 C 38.398438 151.242188 36.734375 149.574219 36.734375 147.523438 C 36.734375 145.476562 38.398438 143.808594 40.449219 143.808594 C 42.5 143.808594 44.167969 145.476562 44.167969 147.523438 Z M 28.632812 75.261719 C 26.582031 75.261719 24.917969 73.59375 24.917969 71.542969 C 24.917969 69.492188 26.582031 67.828125 28.632812 67.828125 C 30.683594 67.828125 32.351562 69.492188 32.351562 71.542969 C 32.351562 73.59375 30.683594 75.261719 28.632812 75.261719 Z M 85.789062 11.65625 C 83.742188 11.65625 82.074219 9.988281 82.074219 7.9375 C 82.074219 5.886719 83.742188 4.222656 85.789062 4.222656 C 87.839844 4.222656 89.507812 5.886719 89.507812 7.9375 C 89.507812 9.988281 87.839844 11.65625 85.789062 11.65625 Z M 181.894531 47.289062 C 177.523438 47.289062 173.96875 50.84375 173.96875 55.21875 C 173.96875 58.710938 176.210938 61.753906 179.546875 62.789062 L 179.789062 62.863281 L 179.789062 78.636719 C 179.789062 81.777344 177.234375 84.335938 174.09375 84.335938 L 165.25 84.335938 L 165.230469 84.007812 C 164.375 69.136719 158.082031 55.121094 147.507812 44.546875 C 139.695312 36.734375 129.96875 31.203125 119.378906 28.546875 L 119.117188 28.480469 L 119.117188 15.742188 C 119.117188 10.277344 114.671875 5.832031 109.210938 5.832031 L 93.4375 5.832031 L 93.363281 5.589844 C 92.328125 2.253906 89.28125 0.0117188 85.789062 0.0117188 C 81.417969 0.0117188 77.863281 3.566406 77.863281 7.9375 C 77.863281 12.308594 81.417969 15.863281 85.789062 15.863281 C 89.28125 15.863281 92.328125 13.621094 93.363281 10.285156 L 93.4375 10.042969 L 109.210938 10.042969 C 112.351562 10.042969 114.90625 12.597656 114.90625 15.742188 L 114.90625 27.605469 L 114.507812 27.539062 C 111.210938 26.996094 107.835938 26.71875 104.472656 26.71875 C 88.214844 26.71875 72.929688 33.050781 61.433594 44.546875 C 54.515625 51.464844 49.324219 59.988281 46.421875 69.195312 L 46.34375 69.4375 L 36.28125 69.4375 L 36.207031 69.195312 C 35.167969 65.859375 32.125 63.617188 28.632812 63.617188 C 24.261719 63.617188 20.707031 67.171875 20.707031 71.542969 C 20.707031 75.914062 24.261719 79.46875 28.632812 79.46875 C 32.125 79.46875 35.167969 77.230469 36.207031 73.890625 L 36.28125 73.648438 L 45.199219 73.648438 L 45.105469 74.070312 C 44.113281 78.472656 43.609375 83.019531 43.609375 87.582031 C 43.609375 101.242188 48.003906 114.121094 56.324219 124.832031 L 56.757812 125.386719 L 48.25 125.386719 C 42.789062 125.386719 38.34375 129.832031 38.34375 135.296875 L 38.34375 139.878906 L 38.101562 139.953125 C 34.765625 140.988281 32.523438 144.03125 32.523438 147.523438 C 32.523438 151.894531 36.078125 155.453125 40.449219 155.453125 C 44.820312 155.453125 48.375 151.894531 48.375 147.523438 C 48.375 144.03125 46.132812 140.988281 42.796875 139.953125 L 42.554688 139.878906 L 42.554688 135.296875 C 42.554688 132.152344 45.109375 129.597656 48.25 129.597656 L 60.4375 129.597656 L 60.539062 129.703125 C 60.859375 130.039062 61.152344 130.335938 61.433594 130.621094 C 72.929688 142.117188 88.214844 148.445312 104.472656 148.445312 C 106.554688 148.445312 108.65625 148.339844 110.726562 148.132812 L 111.105469 148.09375 L 111.105469 157.710938 C 111.105469 163.175781 115.550781 167.621094 121.015625 167.621094 L 136.785156 167.621094 L 136.859375 167.863281 C 137.898438 171.199219 140.941406 173.441406 144.433594 173.441406 C 148.804688 173.441406 152.359375 169.886719 152.359375 165.515625 C 152.359375 161.144531 148.804688 157.585938 144.433594 157.585938 C 140.941406 157.585938 137.898438 159.828125 136.859375 163.167969 L 136.785156 163.410156 L 121.015625 163.410156 C 117.871094 163.410156 115.316406 160.855469 115.316406 157.710938 L 115.316406 147.488281 L 115.597656 147.4375 C 127.695312 145.214844 138.730469 139.398438 147.507812 130.621094 C 158.667969 119.460938 164.992188 104.636719 165.320312 88.882812 L 165.328125 88.542969 L 174.09375 88.542969 C 179.554688 88.542969 184 84.097656 184 78.636719 L 184 62.863281 L 184.242188 62.789062 C 187.578125 61.753906 189.820312 58.710938 189.820312 55.21875 C 189.820312 50.84375 186.265625 47.289062 181.894531 47.289062 " fill-opacity="1" fill-rule="nonzero"/></g><path fill="#ffffff" d="M 145.617188 65.902344 C 145.605469 65.902344 145.589844 65.902344 145.574219 65.902344 C 129.78125 66.253906 118.175781 70.953125 111.078125 79.871094 C 108.601562 82.984375 106.691406 86.613281 105.410156 90.65625 C 104.53125 93.421875 103.972656 95.96875 103.707031 98.4375 L 103.542969 99.945312 L 102.578125 98.777344 C 102.382812 98.546875 102.226562 98.359375 102.074219 98.1875 L 101.953125 98.046875 L 101.925781 97.859375 C 100.207031 86.472656 95.722656 78.917969 88.59375 75.410156 C 85.617188 73.945312 82.203125 73.21875 78.441406 73.238281 C 76.875 73.246094 75.226562 73.386719 73.546875 73.65625 C 72.09375 73.890625 70.589844 74.222656 69.074219 74.644531 C 63.554688 76.1875 59.546875 78.460938 59.378906 78.558594 C 58.675781 78.960938 58.265625 79.746094 58.335938 80.558594 C 58.347656 80.6875 58.625 83.789062 60.066406 87.773438 C 60.914062 90.117188 61.992188 92.296875 63.269531 94.253906 C 64.882812 96.722656 66.824219 98.84375 69.035156 100.550781 C 73.609375 104.082031 79.316406 105.875 86 105.875 C 88.203125 105.875 90.546875 105.679688 92.960938 105.289062 C 93.140625 105.261719 93.316406 105.234375 93.492188 105.203125 C 94.632812 105.007812 95.402344 103.921875 95.207031 102.785156 C 95.039062 101.789062 94.148438 101.042969 93.140625 101.042969 C 93.03125 101.042969 92.917969 101.050781 92.8125 101.066406 L 92.785156 101.070312 C 92.625 101.097656 92.460938 101.125 92.300781 101.152344 C 90.117188 101.503906 88.007812 101.679688 86.035156 101.679688 C 80.285156 101.679688 75.433594 100.191406 71.617188 97.25 C 67.441406 94.035156 65.191406 89.59375 64.039062 86.433594 C 63.390625 84.652344 63.007812 83.058594 62.804688 82.035156 L 62.707031 81.546875 L 63.15625 81.332031 C 64.726562 80.582031 67.226562 79.515625 70.203125 78.683594 C 71.539062 78.308594 72.871094 78.015625 74.160156 77.808594 C 75.707031 77.558594 77.203125 77.433594 78.613281 77.433594 C 81.667969 77.433594 84.402344 78.019531 86.742188 79.171875 C 91.121094 81.328125 94.328125 85.570312 96.277344 91.78125 L 96.789062 93.417969 L 95.203125 92.445312 C 88.289062 88.1875 81.328125 87.355469 81.035156 87.320312 C 80.957031 87.3125 80.878906 87.308594 80.796875 87.308594 C 80.6875 87.308594 80.574219 87.316406 80.46875 87.335938 C 79.542969 87.484375 78.824219 88.238281 78.71875 89.167969 C 78.585938 90.316406 79.414062 91.355469 80.5625 91.488281 C 80.625 91.496094 86.921875 92.269531 93.011719 96.015625 C 95.007812 97.242188 96.777344 98.65625 98.265625 100.210938 L 98.289062 100.234375 L 98.3125 100.261719 C 98.390625 100.367188 98.484375 100.464844 98.582031 100.550781 L 98.628906 100.597656 C 101.734375 103.988281 103.683594 108.164062 104.429688 113.015625 L 104.4375 113.070312 C 105.109375 119.183594 104.476562 124.953125 104.171875 127.726562 C 104.113281 128.253906 104.066406 128.671875 104.042969 128.980469 C 104 129.488281 104.203125 130.007812 104.617188 130.441406 C 105 130.851562 105.523438 131.082031 106.082031 131.097656 C 106.214844 131.101562 106.34375 131.09375 106.476562 131.074219 L 106.496094 131.070312 C 107.574219 130.886719 108.105469 129.871094 108.242188 128.980469 L 108.25 128.933594 C 108.992188 124.109375 109.167969 119.058594 108.769531 113.917969 L 108.753906 113.726562 L 108.847656 113.554688 C 110.226562 111.105469 112.546875 107.359375 115.777344 103.433594 C 119.855469 98.472656 124.277344 94.546875 128.929688 91.761719 C 129.847656 91.210938 130.148438 90.015625 129.597656 89.097656 C 129.246094 88.503906 128.621094 88.148438 127.925781 88.148438 C 127.578125 88.148438 127.234375 88.246094 126.933594 88.425781 C 120.9375 92.011719 115.175781 97.605469 109.808594 105.042969 C 109.386719 105.628906 108.972656 106.21875 108.574219 106.800781 L 107.507812 108.355469 L 107.40625 106.472656 C 107.257812 103.804688 107.28125 99.699219 108.210938 95.277344 C 109.269531 90.257812 111.257812 85.890625 114.121094 82.289062 C 120.125 74.746094 129.972656 70.566406 143.382812 69.875 L 143.972656 69.84375 L 144.050781 70.425781 C 145.902344 83.835938 143.085938 94.398438 135.683594 101.820312 C 129.773438 107.738281 123.003906 109.390625 122.933594 109.40625 C 122.425781 109.523438 121.996094 109.832031 121.722656 110.273438 C 121.449219 110.714844 121.363281 111.234375 121.480469 111.742188 C 121.6875 112.625 122.464844 113.246094 123.371094 113.246094 C 123.519531 113.246094 123.667969 113.226562 123.816406 113.195312 C 123.972656 113.15625 125.425781 112.804688 127.5625 111.894531 C 130.324219 110.71875 134.417969 108.527344 138.242188 104.757812 C 142.160156 100.894531 145 96.175781 146.675781 90.734375 C 148.746094 84.027344 149.035156 76.214844 147.535156 67.515625 C 147.371094 66.582031 146.566406 65.902344 145.617188 65.902344 " fill-opacity="1" fill-rule="nonzero"/><path fill="#ffffff" d="M 102.355469 77.796875 C 102.835938 77.796875 103.304688 77.625 103.675781 77.316406 C 104.542969 76.585938 104.652344 75.289062 103.921875 74.421875 C 99.304688 68.945312 98.25 62.84375 100.789062 56.289062 C 101.84375 53.566406 103.332031 51.300781 104.398438 49.882812 L 104.90625 49.207031 L 105.417969 49.875 C 106.160156 50.84375 106.84375 51.855469 107.453125 52.882812 C 109.945312 57.101562 111.097656 61.332031 110.863281 65.460938 C 110.800781 66.589844 111.671875 67.558594 112.800781 67.625 C 112.839844 67.625 112.878906 67.625 112.917969 67.625 C 114.003906 67.625 114.902344 66.777344 114.964844 65.6875 C 115.625 53.824219 106.703125 45.019531 106.324219 44.648438 C 105.9375 44.273438 105.429688 44.070312 104.894531 44.070312 C 104.351562 44.070312 103.839844 44.277344 103.453125 44.660156 C 103.285156 44.824219 99.359375 48.734375 97.03125 54.625 C 94.820312 60.210938 93.679688 68.640625 100.785156 77.066406 C 101.175781 77.53125 101.746094 77.796875 102.355469 77.796875 " fill-opacity="1" fill-rule="nonzero"/><g fill="#ffffff" fill-opacity="1"><g transform="translate(239.960818, 129.944569)"><g><path d="M 39.375 -74.40625 C 50.726562 -74.40625 59.445312 -71.703125 65.53125 -66.296875 C 71.625 -60.890625 74.671875 -52.734375 74.671875 -41.828125 L 74.671875 0 L 54.78125 0 L 54.78125 -9.125 C 50.78125 -2.3125 43.332031 1.09375 32.4375 1.09375 C 26.800781 1.09375 21.914062 0.140625 17.78125 -1.765625 C 13.644531 -3.679688 10.488281 -6.316406 8.3125 -9.671875 C 6.132812 -13.035156 5.046875 -16.851562 5.046875 -21.125 C 5.046875 -27.9375 7.609375 -33.296875 12.734375 -37.203125 C 17.867188 -41.109375 25.796875 -43.0625 36.515625 -43.0625 L 53.421875 -43.0625 C 53.421875 -47.695312 52.007812 -51.257812 49.1875 -53.75 C 46.375 -56.25 42.148438 -57.5 36.515625 -57.5 C 32.609375 -57.5 28.769531 -56.882812 25 -55.65625 C 21.226562 -54.4375 18.023438 -52.78125 15.390625 -50.6875 L 7.765625 -65.546875 C 11.765625 -68.359375 16.554688 -70.535156 22.140625 -72.078125 C 27.734375 -73.628906 33.476562 -74.40625 39.375 -74.40625 Z M 37.75 -13.21875 C 41.382812 -13.21875 44.609375 -14.054688 47.421875 -15.734375 C 50.234375 -17.421875 52.234375 -19.898438 53.421875 -23.171875 L 53.421875 -30.65625 L 38.828125 -30.65625 C 30.109375 -30.65625 25.75 -27.796875 25.75 -22.078125 C 25.75 -19.347656 26.816406 -17.1875 28.953125 -15.59375 C 31.085938 -14.007812 34.019531 -13.21875 37.75 -13.21875 Z M 37.75 -13.21875 "/></g></g></g><g fill="#ffffff" fill-opacity="1"><g transform="translate(324.014075, 129.944569)"><g><path d="M 85.4375 -73.3125 L 85.4375 -12.265625 C 85.4375 1.179688 81.9375 11.175781 74.9375 17.71875 C 67.945312 24.257812 57.726562 27.53125 44.28125 27.53125 C 37.195312 27.53125 30.472656 26.664062 24.109375 24.9375 C 17.753906 23.207031 12.488281 20.707031 8.3125 17.4375 L 16.765625 2.1875 C 19.847656 4.726562 23.75 6.75 28.46875 8.25 C 33.195312 9.75 37.925781 10.5 42.65625 10.5 C 50.007812 10.5 55.4375 8.835938 58.9375 5.515625 C 62.4375 2.203125 64.1875 -2.8125 64.1875 -9.53125 L 64.1875 -12.671875 C 58.644531 -6.585938 50.921875 -3.546875 41.015625 -3.546875 C 34.296875 -3.546875 28.140625 -5.019531 22.546875 -7.96875 C 16.960938 -10.925781 12.535156 -15.082031 9.265625 -20.4375 C 5.992188 -25.800781 4.359375 -31.976562 4.359375 -38.96875 C 4.359375 -45.96875 5.992188 -52.144531 9.265625 -57.5 C 12.535156 -62.863281 16.960938 -67.019531 22.546875 -69.96875 C 28.140625 -72.925781 34.296875 -74.40625 41.015625 -74.40625 C 51.640625 -74.40625 59.722656 -70.90625 65.265625 -63.90625 L 65.265625 -73.3125 Z M 45.234375 -20.984375 C 50.867188 -20.984375 55.476562 -22.640625 59.0625 -25.953125 C 62.65625 -29.273438 64.453125 -33.613281 64.453125 -38.96875 C 64.453125 -44.332031 62.65625 -48.671875 59.0625 -51.984375 C 55.476562 -55.296875 50.867188 -56.953125 45.234375 -56.953125 C 39.609375 -56.953125 34.976562 -55.296875 31.34375 -51.984375 C 27.707031 -48.671875 25.890625 -44.332031 25.890625 -38.96875 C 25.890625 -33.613281 27.707031 -29.273438 31.34375 -25.953125 C 34.976562 -22.640625 39.609375 -20.984375 45.234375 -20.984375 Z M 45.234375 -20.984375 "/></g></g></g><g fill="#ffffff" fill-opacity="1"><g transform="translate(419.374314, 129.944569)"><g><path d="M 30.109375 -63.640625 C 32.660156 -67.179688 36.09375 -69.859375 40.40625 -71.671875 C 44.71875 -73.492188 49.691406 -74.40625 55.328125 -74.40625 L 55.328125 -54.78125 C 52.960938 -54.957031 51.367188 -55.046875 50.546875 -55.046875 C 44.460938 -55.046875 39.691406 -53.34375 36.234375 -49.9375 C 32.785156 -46.53125 31.0625 -41.421875 31.0625 -34.609375 L 31.0625 0 L 9.8125 0 L 9.8125 -73.3125 L 30.109375 -73.3125 Z M 30.109375 -63.640625 "/></g></g></g><g fill="#ffffff" fill-opacity="1"><g transform="translate(478.088987, 129.944569)"><g><path d="M 9.8125 -73.3125 L 31.0625 -73.3125 L 31.0625 0 L 9.8125 0 Z M 20.4375 -83.390625 C 17.070312 -83.390625 14.320312 -84.476562 12.1875 -86.65625 C 10.050781 -88.84375 8.984375 -91.617188 8.984375 -94.984375 C 8.984375 -98.242188 10.050781 -100.960938 12.1875 -103.140625 C 14.320312 -105.328125 17.070312 -106.421875 20.4375 -106.421875 C 23.789062 -106.421875 26.535156 -105.328125 28.671875 -103.140625 C 30.804688 -100.960938 31.875 -98.242188 31.875 -94.984375 C 31.875 -91.617188 30.804688 -88.84375 28.671875 -86.65625 C 26.535156 -84.476562 23.789062 -83.390625 20.4375 -83.390625 Z M 20.4375 -83.390625 "/></g></g></g><g fill="#ffffff" fill-opacity="1"><g transform="translate(519.09388, 129.944569)"><g><path d="M 41.28125 -28.75 L 31.0625 -18.671875 L 31.0625 0 L 9.8125 0 L 9.8125 -101.109375 L 31.0625 -101.109375 L 31.0625 -43.875 L 62.140625 -73.3125 L 87.484375 -73.3125 L 56.953125 -42.25 L 90.203125 0 L 64.453125 0 Z M 41.28125 -28.75 "/></g></g></g><g fill="#ffffff" fill-opacity="1"><g transform="translate(609.004979, 129.944569)"><g><path d="M 54.375 -74.40625 C 63.457031 -74.40625 70.789062 -71.675781 76.375 -66.21875 C 81.957031 -60.769531 84.75 -52.6875 84.75 -41.96875 L 84.75 0 L 63.5 0 L 63.5 -38.703125 C 63.5 -44.515625 62.226562 -48.847656 59.6875 -51.703125 C 57.144531 -54.566406 53.460938 -56 48.640625 -56 C 43.285156 -56 39.015625 -54.34375 35.828125 -51.03125 C 32.648438 -47.71875 31.0625 -42.789062 31.0625 -36.25 L 31.0625 0 L 9.8125 0 L 9.8125 -73.3125 L 30.109375 -73.3125 L 30.109375 -64.71875 C 32.929688 -67.8125 36.429688 -70.195312 40.609375 -71.875 C 44.785156 -73.5625 49.375 -74.40625 54.375 -74.40625 Z M 54.375 -74.40625 "/></g></g></g><g fill="#ffffff" fill-opacity="1"><g transform="translate(703.139181, 129.944569)"><g><path d="M 44.6875 1.09375 C 36.96875 1.09375 30.039062 -0.515625 23.90625 -3.734375 C 17.78125 -6.960938 12.988281 -11.4375 9.53125 -17.15625 C 6.082031 -22.882812 4.359375 -29.382812 4.359375 -36.65625 C 4.359375 -43.925781 6.082031 -50.421875 9.53125 -56.140625 C 12.988281 -61.859375 17.78125 -66.332031 23.90625 -69.5625 C 30.039062 -72.789062 36.96875 -74.40625 44.6875 -74.40625 C 52.414062 -74.40625 59.320312 -72.789062 65.40625 -69.5625 C 71.488281 -66.332031 76.253906 -61.859375 79.703125 -56.140625 C 83.160156 -50.421875 84.890625 -43.925781 84.890625 -36.65625 C 84.890625 -29.382812 83.160156 -22.882812 79.703125 -17.15625 C 76.253906 -11.4375 71.488281 -6.960938 65.40625 -3.734375 C 59.320312 -0.515625 52.414062 1.09375 44.6875 1.09375 Z M 44.6875 -16.359375 C 50.144531 -16.359375 54.617188 -18.195312 58.109375 -21.875 C 61.609375 -25.550781 63.359375 -30.476562 63.359375 -36.65625 C 63.359375 -42.832031 61.609375 -47.757812 58.109375 -51.4375 C 54.617188 -55.113281 50.144531 -56.953125 44.6875 -56.953125 C 39.238281 -56.953125 34.742188 -55.113281 31.203125 -51.4375 C 27.660156 -47.757812 25.890625 -42.832031 25.890625 -36.65625 C 25.890625 -30.476562 27.660156 -25.550781 31.203125 -21.875 C 34.742188 -18.195312 39.238281 -16.359375 44.6875 -16.359375 Z M 44.6875 -16.359375 "/></g></g></g><g fill="#ffffff" fill-opacity="1"><g transform="translate(792.369134, 129.944569)"><g><path d="M 127.546875 -73.3125 L 100.96875 0 L 80.53125 0 L 64.046875 -45.515625 L 47.015625 0 L 26.578125 0 L 0.140625 -73.3125 L 20.171875 -73.3125 L 37.46875 -23.703125 L 55.453125 -73.3125 L 73.453125 -73.3125 L 90.890625 -23.703125 L 108.734375 -73.3125 Z M 127.546875 -73.3125 "/></g></g></g></svg>